<svg width="3000" height="903" viewBox="0 0 3000 903" fill="none" xmlns="http://www.w3.org/2000/svg">
<path d="M705.5 657.757C717.792 657.757 726.896 661.966 732.813 670.382C738.729 678.799 741.688 688.012 741.688 698.028C741.688 708.497 738.729 717.716 732.813 725.674C726.896 733.632 718.021 737.611 706.188 737.611H498.667C459.068 737.611 424.359 729.075 394.542 712.007C364.734 694.95 341.526 671.059 324.917 640.341C308.302 609.617 300 573.554 300 532.153C300 491.195 308.302 455.236 324.917 424.278C341.526 393.33 364.734 369.325 394.542 352.257C424.359 335.2 459.068 326.674 498.667 326.674H707.542C718.917 326.674 727.448 330.762 733.146 338.945C738.839 347.137 741.688 356.242 741.688 366.257C741.688 376.726 738.839 386.174 733.146 394.59C727.448 403.007 718.688 407.215 706.854 407.215H498.667C460.885 407.215 430.276 418.59 406.833 441.34C383.401 464.101 371.688 494.143 371.688 531.466C371.688 569.226 383.401 599.716 406.833 622.924C430.276 646.143 460.885 657.757 498.667 657.757H705.5Z" fill="#FF751F"/>
<path d="M577.555 245.854C565.264 245.854 556.159 241.646 550.243 233.229C544.326 224.813 541.368 215.599 541.368 205.583C541.368 195.115 544.326 185.896 550.243 177.938C556.159 169.979 565.034 166 576.868 166H784.389C823.987 166 858.696 174.536 888.514 191.604C918.321 208.661 941.529 232.552 958.139 263.271C974.753 293.995 983.055 330.057 983.055 371.458C983.055 412.417 974.753 448.375 958.139 479.333C941.529 510.281 918.321 534.286 888.514 551.354C858.696 568.411 823.987 576.938 784.389 576.938H575.514C564.139 576.938 555.607 572.849 549.909 564.667C544.217 556.474 541.368 547.37 541.368 537.354C541.368 526.885 544.217 517.438 549.909 509.021C555.607 500.604 564.368 496.396 576.201 496.396H784.389C822.17 496.396 852.779 485.021 876.222 462.271C899.654 439.51 911.368 409.469 911.368 372.146C911.368 334.385 899.654 303.896 876.222 280.688C852.779 257.469 822.17 245.854 784.389 245.854H577.555Z" fill="#FFD21F"/>
<path d="M1314.87 550.828C1322.53 550.828 1328.48 553.26 1332.75 558.12C1337.01 562.969 1339.14 568.182 1339.14 573.766C1339.14 579.073 1337.16 583.932 1333.19 588.349C1329.21 592.755 1323.11 594.953 1314.87 594.953H1139.69C1130.85 594.953 1123.79 592.385 1118.5 587.245C1113.21 582.094 1110.56 575.839 1110.56 568.474V339.87C1110.56 332.818 1113.21 326.714 1118.5 321.557C1123.79 316.406 1130.85 313.828 1139.69 313.828H1314.87C1322.82 313.828 1328.7 315.969 1332.52 320.245C1336.35 324.51 1338.27 329.432 1338.27 335.016C1338.27 340.323 1336.28 345.328 1332.31 350.036C1328.34 354.734 1322.53 357.078 1314.87 357.078H1160.85V434.307H1306.94C1314.59 434.307 1320.32 436.594 1324.14 441.161C1327.98 445.719 1329.89 450.797 1329.89 456.391C1329.89 461.682 1327.98 466.536 1324.14 470.953C1320.32 475.359 1314.59 477.557 1306.94 477.557H1160.85V550.828H1314.87Z" fill="#1F80FF"/>
<path d="M1497.13 313.828C1523.91 313.828 1547.3 319.719 1567.3 331.495C1587.31 343.26 1602.91 359.661 1614.07 380.703C1625.25 401.734 1630.84 426.37 1630.84 454.62C1630.84 482.568 1625.25 507.135 1614.07 528.328C1602.91 549.51 1587.31 565.911 1567.3 577.536C1547.3 589.151 1523.91 594.953 1497.13 594.953H1406.22C1398.27 594.953 1391.43 592.385 1385.7 587.245C1379.96 582.094 1377.09 575.984 1377.09 568.911V339.432C1377.09 332.38 1379.96 326.349 1385.7 321.349C1391.43 316.339 1398.27 313.828 1406.22 313.828H1497.13ZM1497.13 551.266C1513.6 551.266 1528.09 547.224 1540.59 539.141C1553.1 531.047 1562.81 519.786 1569.72 505.37C1576.63 490.953 1580.09 474.036 1580.09 454.62C1580.09 435.203 1576.63 418.141 1569.72 403.432C1562.81 388.714 1553.1 377.307 1540.59 369.224C1528.09 361.13 1513.6 357.078 1497.13 357.078H1427.41V551.266H1497.13Z" fill="#1F80FF"/>
<path d="M1896.07 337.224C1896.07 329.281 1898.79 323.401 1904.23 319.578C1909.68 315.745 1915.64 313.828 1922.11 313.828C1928.87 313.828 1934.83 315.745 1939.98 319.578C1945.14 323.401 1947.71 329.135 1947.71 336.786V470.953C1947.71 496.536 1942.19 518.969 1931.15 538.245C1920.12 557.51 1904.68 572.516 1884.82 583.266C1864.95 594.005 1841.64 599.37 1814.88 599.37C1788.39 599.37 1765.14 594.005 1745.13 583.266C1725.13 572.516 1709.61 557.51 1698.57 538.245C1687.54 518.969 1682.03 496.536 1682.03 470.953V335.911C1682.03 328.552 1684.67 323.031 1689.96 319.349C1695.27 315.672 1701.16 313.828 1707.63 313.828C1714.39 313.828 1720.5 315.672 1725.94 319.349C1731.39 323.031 1734.11 328.698 1734.11 336.349V470.953C1734.11 495.37 1741.46 515.156 1756.17 530.307C1770.88 545.464 1790.3 553.036 1814.42 553.036C1838.85 553.036 1858.57 545.464 1873.57 530.307C1888.57 515.156 1896.07 495.37 1896.07 470.953V337.224Z" fill="#1F80FF"/>
<path d="M1990.06 346.495C1987.42 340.318 1987.2 334.724 1989.41 329.724C1991.61 324.724 1995.06 320.828 1999.76 318.036C2004.47 315.234 2009.48 313.828 2014.78 313.828C2020.08 313.828 2024.63 314.865 2028.45 316.932C2032.28 318.99 2035.37 322.516 2037.72 327.516L2134.81 513.745L2230.14 328.391C2235.14 318.682 2242.64 313.828 2252.64 313.828C2257.93 313.828 2263 315.302 2267.85 318.245C2272.71 321.193 2276.17 325.24 2278.22 330.391C2280.29 335.531 2279.56 341.635 2276.03 348.703L2157.76 581.266C2152.47 590.391 2144.82 594.953 2134.81 594.953C2130.1 594.953 2125.53 593.781 2121.12 591.432C2116.71 589.073 2113.33 585.391 2110.97 580.391L1990.06 346.495Z" fill="#1F80FF"/>
<path d="M2313.53 337.661C2313.53 329.427 2316.17 323.401 2321.47 319.578C2326.77 315.745 2332.66 313.828 2339.13 313.828C2345.6 313.828 2351.56 315.745 2357.01 319.578C2362.45 323.401 2365.17 329.427 2365.17 337.661V572.453C2365.17 579.802 2362.45 585.391 2357.01 589.224C2351.56 593.047 2345.6 594.953 2339.13 594.953C2332.66 594.953 2326.77 593.115 2321.47 589.432C2316.17 585.755 2313.53 580.094 2313.53 572.453V337.661Z" fill="#1F80FF"/>
<path d="M2535.07 309.433C2539.78 309.433 2544.19 310.391 2548.3 312.308C2552.43 314.214 2555.52 317.37 2557.57 321.787L2682.47 566.703C2686.29 573.177 2687.31 578.844 2685.55 583.703C2683.79 588.552 2680.41 592.37 2675.41 595.162C2670.41 597.964 2665.1 599.37 2659.51 599.37C2655.4 599.37 2651.21 598.266 2646.95 596.058C2642.68 593.849 2639.37 590.693 2637.01 586.578L2606.11 525.224H2464.01L2433.13 586.578C2431.06 591.276 2427.9 594.578 2423.63 596.495C2419.37 598.412 2415.18 599.37 2411.05 599.37C2406.05 599.37 2401.12 597.964 2396.26 595.162C2391.41 592.37 2387.9 588.552 2385.7 583.703C2383.49 578.844 2383.71 573.62 2386.34 568.037L2512.11 321.787C2514.47 316.787 2517.49 313.485 2521.16 311.87C2524.83 310.245 2529.47 309.433 2535.07 309.433ZM2535.07 384.016L2485.63 482.412H2584.49L2535.07 384.016Z" fill="#1F80FF"/>
<path d="M862.756 703.834L841.589 675.875C840.672 674.667 840.615 673.594 841.422 672.646C842.224 671.703 843.172 671.229 844.256 671.229C845.464 671.229 846.381 671.719 847.006 672.688L865.86 698.417L884.881 672.688C885.506 671.719 886.391 671.229 887.547 671.229C888.573 671.229 889.448 671.677 890.172 672.563C890.891 673.453 890.849 674.532 890.047 675.792L869.131 703.834V722.771C869.131 723.87 868.782 724.677 868.089 725.188C867.407 725.703 866.693 725.959 865.943 725.959C865.079 725.959 864.329 725.703 863.693 725.188C863.068 724.677 862.756 723.87 862.756 722.771V703.834Z" fill="#242424"/>
<path d="M939.008 726.813C933.852 726.813 929.164 725.657 924.945 723.334C920.721 721.016 917.362 717.677 914.862 713.313C912.372 708.953 911.133 703.729 911.133 697.646C911.133 692.828 911.992 688.698 913.716 685.25C915.435 681.808 917.685 678.979 920.466 676.771C923.242 674.563 926.206 672.948 929.362 671.917C932.529 670.875 935.513 670.354 938.32 670.354C941.195 670.354 944.263 670.875 947.529 671.917C950.805 672.948 953.888 674.552 956.779 676.729C959.68 678.912 962.034 681.74 963.841 685.209C965.643 688.683 966.549 692.828 966.549 697.646C966.549 702.12 965.799 706.146 964.299 709.729C962.81 713.313 960.789 716.386 958.237 718.938C955.695 721.495 952.768 723.448 949.466 724.792C946.174 726.136 942.685 726.813 939.008 726.813ZM917.591 697.896C917.591 702.604 918.534 706.683 920.424 710.125C922.31 713.573 924.872 716.24 928.112 718.125C931.362 720.016 934.992 720.959 939.008 720.959C942.909 720.959 946.451 720.042 949.633 718.209C952.826 716.375 955.383 713.74 957.299 710.292C959.227 706.849 960.195 702.719 960.195 697.896C960.195 693.938 959.487 690.584 958.07 687.834C956.664 685.084 954.862 682.849 952.654 681.125C950.445 679.407 948.091 678.141 945.591 677.334C943.102 676.532 940.742 676.125 938.508 676.125C936.326 676.125 934.013 676.5 931.57 677.25C929.122 678 926.841 679.24 924.716 680.959C922.602 682.667 920.888 684.907 919.57 687.667C918.247 690.417 917.591 693.828 917.591 697.896Z" fill="#242424"/>
<path d="M1037.38 673.542C1037.38 672.459 1037.72 671.662 1038.4 671.146C1039.09 670.62 1039.84 670.354 1040.65 670.354C1041.45 670.354 1042.18 670.62 1042.84 671.146C1043.5 671.662 1043.84 672.433 1043.84 673.459V701.938C1043.84 706.078 1043.11 709.698 1041.67 712.792C1040.24 715.891 1038.3 718.49 1035.86 720.584C1033.43 722.683 1030.7 724.245 1027.69 725.271C1024.69 726.297 1021.61 726.813 1018.44 726.813C1015.29 726.813 1012.2 726.297 1009.19 725.271C1006.18 724.245 1003.45 722.683 1001 720.584C998.573 718.49 996.64 715.891 995.213 712.792C993.781 709.698 993.067 706.078 993.067 701.938V673.209C993.067 672.224 993.406 671.5 994.088 671.042C994.781 670.584 995.505 670.354 996.255 670.354C997.047 670.354 997.786 670.604 998.484 671.104C999.177 671.594 999.526 672.323 999.526 673.292V701.938C999.526 706.078 1000.44 709.521 1002.28 712.271C1004.11 715.021 1006.47 717.104 1009.36 718.521C1012.26 719.927 1015.29 720.625 1018.44 720.625C1021.61 720.625 1024.64 719.927 1027.53 718.521C1030.43 717.104 1032.8 715.021 1034.63 712.271C1036.46 709.521 1037.38 706.078 1037.38 701.938V673.542Z" fill="#242424"/>
<path d="M1079.48 706.854V722.938C1079.48 723.927 1079.14 724.677 1078.48 725.188C1077.82 725.703 1077.09 725.959 1076.29 725.959C1075.54 725.959 1074.83 725.703 1074.17 725.188C1073.51 724.677 1073.19 723.959 1073.19 723.042V674.229C1073.19 673.313 1073.48 672.584 1074.08 672.042C1074.69 671.5 1075.46 671.229 1076.37 671.229H1096.77C1101.75 671.229 1105.9 672.078 1109.23 673.771C1112.56 675.453 1115.06 677.688 1116.73 680.479C1118.39 683.261 1119.23 686.344 1119.23 689.729C1119.23 694.094 1117.99 697.75 1115.52 700.709C1113.06 703.657 1109.19 705.584 1103.92 706.5L1117.08 720.709C1117.88 721.516 1118.24 722.323 1118.14 723.125C1118.06 723.933 1117.73 724.604 1117.17 725.146C1116.59 725.688 1115.9 725.959 1115.1 725.959C1114.24 725.959 1113.46 725.584 1112.77 724.834L1096.17 706.854H1079.48ZM1079.48 701.438H1096.85C1102.42 701.438 1106.48 700.334 1109.02 698.125C1111.57 695.917 1112.85 693.229 1112.85 690.063C1112.8 686.344 1111.36 683.229 1108.54 680.729C1105.73 678.229 1101.84 676.979 1096.85 676.979H1079.48V701.438Z" fill="#242424"/>
<path d="M1188.67 720.271H1222.67C1223.59 720.271 1224.29 720.563 1224.78 721.146C1225.26 721.719 1225.52 722.375 1225.55 723.125C1225.59 723.865 1225.37 724.521 1224.9 725.104C1224.44 725.677 1223.7 725.959 1222.67 725.959H1186.44C1185.24 725.959 1184.27 725.594 1183.55 724.854C1182.84 724.104 1182.49 723.209 1182.49 722.167V674.917C1182.49 673.948 1182.84 673.094 1183.55 672.354C1184.27 671.604 1185.24 671.229 1186.44 671.229H1222.76C1223.67 671.229 1224.36 671.5 1224.82 672.042C1225.28 672.584 1225.49 673.229 1225.46 673.979C1225.43 674.729 1225.19 675.375 1224.74 675.917C1224.28 676.459 1223.59 676.729 1222.67 676.729H1188.67V696.104H1221.05C1221.91 696.104 1222.57 696.375 1223.03 696.917C1223.49 697.459 1223.71 698.104 1223.71 698.854C1223.71 699.594 1223.5 700.24 1223.07 700.792C1222.64 701.334 1221.96 701.604 1221.05 701.604H1188.67V720.271Z" fill="#242424"/>
<path d="M1246.26 674.584C1245.74 673.375 1245.86 672.37 1246.63 671.563C1247.41 670.761 1248.34 670.354 1249.44 670.354C1250.01 670.354 1250.55 670.5 1251.07 670.792C1251.59 671.084 1252 671.542 1252.28 672.167L1274.4 716.5L1296.01 672.25C1296.28 671.625 1296.66 671.157 1297.15 670.834C1297.65 670.516 1298.18 670.354 1298.76 670.354C1299.72 670.354 1300.6 670.745 1301.38 671.521C1302.16 672.302 1302.34 673.292 1301.94 674.5L1277.15 725.021C1276.53 726.214 1275.58 726.813 1274.32 726.813C1273.73 726.813 1273.18 726.651 1272.67 726.334C1272.16 726.026 1271.72 725.5 1271.38 724.75L1246.26 674.584Z" fill="#242424"/>
<path d="M1331.79 720.271H1365.79C1366.71 720.271 1367.41 720.563 1367.9 721.146C1368.38 721.719 1368.64 722.375 1368.67 723.125C1368.71 723.865 1368.49 724.521 1368.02 725.104C1367.57 725.677 1366.82 725.959 1365.79 725.959H1329.57C1328.36 725.959 1327.39 725.594 1326.67 724.854C1325.96 724.104 1325.61 723.209 1325.61 722.167V674.917C1325.61 673.948 1325.96 673.094 1326.67 672.354C1327.39 671.604 1328.36 671.229 1329.57 671.229H1365.88C1366.79 671.229 1367.48 671.5 1367.94 672.042C1368.4 672.584 1368.61 673.229 1368.59 673.979C1368.55 674.729 1368.32 675.375 1367.86 675.917C1367.4 676.459 1366.71 676.729 1365.79 676.729H1331.79V696.104H1364.17C1365.03 696.104 1365.69 696.375 1366.15 696.917C1366.61 697.459 1366.84 698.104 1366.84 698.854C1366.84 699.594 1366.62 700.24 1366.19 700.792C1365.76 701.334 1365.09 701.604 1364.17 701.604H1331.79V720.271Z" fill="#242424"/>
<path d="M1401.52 706.854V722.938C1401.52 723.927 1401.19 724.677 1400.52 725.188C1399.87 725.703 1399.14 725.959 1398.34 725.959C1397.59 725.959 1396.88 725.703 1396.21 725.188C1395.55 724.677 1395.23 723.959 1395.23 723.042V674.229C1395.23 673.313 1395.53 672.584 1396.13 672.042C1396.74 671.5 1397.5 671.229 1398.42 671.229H1418.81C1423.8 671.229 1427.95 672.078 1431.27 673.771C1434.61 675.453 1437.11 677.688 1438.77 680.479C1440.44 683.261 1441.27 686.344 1441.27 689.729C1441.27 694.094 1440.03 697.75 1437.56 700.709C1435.11 703.657 1431.24 705.584 1425.96 706.5L1439.13 720.709C1439.93 721.516 1440.28 722.323 1440.19 723.125C1440.11 723.933 1439.78 724.604 1439.21 725.146C1438.64 725.688 1437.95 725.959 1437.15 725.959C1436.28 725.959 1435.51 725.584 1434.81 724.834L1418.21 706.854H1401.52ZM1401.52 701.438H1418.9C1424.47 701.438 1428.52 700.334 1431.06 698.125C1433.62 695.917 1434.9 693.229 1434.9 690.063C1434.84 686.344 1433.4 683.229 1430.59 680.729C1427.78 678.229 1423.88 676.979 1418.9 676.979H1401.52V701.438Z" fill="#242424"/>
<path d="M1482.41 703.834L1461.24 675.875C1460.32 674.667 1460.26 673.594 1461.07 672.646C1461.87 671.703 1462.82 671.229 1463.91 671.229C1465.11 671.229 1466.03 671.719 1466.66 672.688L1485.51 698.417L1504.53 672.688C1505.16 671.719 1506.04 671.229 1507.2 671.229C1508.22 671.229 1509.1 671.677 1509.82 672.563C1510.54 673.453 1510.5 674.532 1509.7 675.792L1488.78 703.834V722.771C1488.78 723.87 1488.43 724.677 1487.74 725.188C1487.06 725.703 1486.34 725.959 1485.59 725.959C1484.73 725.959 1483.98 725.703 1483.34 725.188C1482.72 724.677 1482.41 723.87 1482.41 722.771V703.834Z" fill="#242424"/>
<path d="M1534.91 725.959C1533.82 725.959 1532.89 725.594 1532.12 724.854C1531.33 724.104 1530.95 723.24 1530.95 722.25V674.834C1530.95 673.865 1531.33 673.021 1532.12 672.313C1532.89 671.594 1533.82 671.229 1534.91 671.229H1553.68C1557.98 671.229 1561.73 672.011 1564.91 673.563C1568.08 675.104 1570.75 677.183 1572.91 679.792C1575.06 682.407 1576.66 685.328 1577.72 688.563C1578.79 691.802 1579.32 695.141 1579.32 698.584C1579.32 702.032 1578.79 705.375 1577.72 708.625C1576.66 711.865 1575.06 714.787 1572.91 717.396C1570.75 720.011 1568.08 722.094 1564.91 723.646C1561.73 725.188 1557.98 725.959 1553.68 725.959H1534.91ZM1537.16 720.354H1553.68C1556.89 720.354 1559.7 719.745 1562.14 718.521C1564.58 717.287 1566.6 715.62 1568.2 713.521C1569.81 711.427 1571.02 709.084 1571.82 706.5C1572.63 703.917 1573.03 701.282 1573.03 698.584C1573.03 695.891 1572.63 693.24 1571.82 690.625C1571.02 688.016 1569.81 685.667 1568.2 683.584C1566.6 681.49 1564.58 679.823 1562.14 678.584C1559.7 677.349 1556.89 676.729 1553.68 676.729H1537.16V720.354Z" fill="#242424"/>
<path d="M1627.77 670.354C1629.03 670.354 1629.95 670.907 1630.52 672L1655.91 721.834C1656.54 723.032 1656.48 724.016 1655.73 724.792C1654.99 725.573 1654.08 725.959 1653 725.959C1652.41 725.959 1651.86 725.834 1651.35 725.584C1650.84 725.323 1650.44 724.907 1650.14 724.334L1643.96 712.104H1611.6L1605.23 724.417C1604.65 725.448 1603.79 725.959 1602.64 725.959C1601.67 725.959 1600.78 725.558 1599.98 724.75C1599.17 723.948 1599.02 723 1599.54 721.917L1624.94 672C1625.21 671.433 1625.61 671.016 1626.12 670.75C1626.65 670.49 1627.2 670.354 1627.77 670.354ZM1627.77 679.563L1614.16 706.688H1641.29L1627.77 679.563Z" fill="#242424"/>
<path d="M1695.93 703.834L1674.76 675.875C1673.84 674.667 1673.79 673.594 1674.59 672.646C1675.39 671.703 1676.34 671.229 1677.43 671.229C1678.63 671.229 1679.55 671.719 1680.18 672.688L1699.03 698.417L1718.05 672.688C1718.68 671.719 1719.56 671.229 1720.72 671.229C1721.74 671.229 1722.62 671.677 1723.34 672.563C1724.06 673.453 1724.02 674.532 1723.22 675.792L1702.3 703.834V722.771C1702.3 723.87 1701.95 724.677 1701.26 725.188C1700.58 725.703 1699.86 725.959 1699.11 725.959C1698.25 725.959 1697.5 725.703 1696.86 725.188C1696.24 724.677 1695.93 723.87 1695.93 722.771V703.834Z" fill="#242424"/>
<path d="M1789.05 725.959C1786.87 725.959 1785.78 724.896 1785.78 722.771V674.229C1785.78 673.203 1786.12 672.448 1786.8 671.959C1787.5 671.474 1788.22 671.229 1788.97 671.229C1789.77 671.229 1790.5 671.474 1791.16 671.959C1791.82 672.448 1792.16 673.203 1792.16 674.229V720.271H1824.35C1825.43 720.271 1826.24 720.563 1826.78 721.146C1827.33 721.719 1827.62 722.375 1827.62 723.125C1827.62 723.865 1827.33 724.521 1826.78 725.104C1826.24 725.677 1825.43 725.959 1824.35 725.959H1789.05Z" fill="#242424"/>
<path d="M1856.17 720.271H1890.17C1891.09 720.271 1891.79 720.563 1892.28 721.146C1892.76 721.719 1893.02 722.375 1893.05 723.125C1893.09 723.865 1892.87 724.521 1892.4 725.104C1891.94 725.677 1891.2 725.959 1890.17 725.959H1853.94C1852.74 725.959 1851.77 725.594 1851.05 724.854C1850.34 724.104 1849.99 723.209 1849.99 722.167V674.917C1849.99 673.948 1850.34 673.094 1851.05 672.354C1851.77 671.604 1852.74 671.229 1853.94 671.229H1890.26C1891.17 671.229 1891.86 671.5 1892.32 672.042C1892.78 672.584 1892.99 673.229 1892.96 673.979C1892.93 674.729 1892.69 675.375 1892.24 675.917C1891.78 676.459 1891.09 676.729 1890.17 676.729H1856.17V696.104H1888.55C1889.41 696.104 1890.07 696.375 1890.53 696.917C1890.99 697.459 1891.21 698.104 1891.21 698.854C1891.21 699.594 1891 700.24 1890.57 700.792C1890.14 701.334 1889.46 701.604 1888.55 701.604H1856.17V720.271Z" fill="#242424"/>
<path d="M1942.07 670.354C1943.33 670.354 1944.25 670.907 1944.82 672L1970.21 721.834C1970.84 723.032 1970.78 724.016 1970.03 724.792C1969.29 725.573 1968.38 725.959 1967.3 725.959C1966.71 725.959 1966.16 725.834 1965.65 725.584C1965.14 725.323 1964.73 724.907 1964.44 724.334L1958.26 712.104H1925.9L1919.53 724.417C1918.95 725.448 1918.09 725.959 1916.94 725.959C1915.97 725.959 1915.08 725.558 1914.28 724.75C1913.47 723.948 1913.32 723 1913.84 721.917L1939.23 672C1939.51 671.433 1939.91 671.016 1940.42 670.75C1940.95 670.49 1941.5 670.354 1942.07 670.354ZM1942.07 679.563L1928.46 706.688H1955.59L1942.07 679.563Z" fill="#242424"/>
<path d="M2000.52 706.854V722.938C2000.52 723.927 2000.18 724.677 1999.52 725.188C1998.86 725.703 1998.13 725.959 1997.33 725.959C1996.58 725.959 1995.87 725.703 1995.21 725.188C1994.55 724.677 1994.23 723.959 1994.23 723.042V674.229C1994.23 673.313 1994.52 672.584 1995.12 672.042C1995.73 671.5 1996.5 671.229 1997.41 671.229H2017.81C2022.79 671.229 2026.94 672.078 2030.27 673.771C2033.6 675.453 2036.1 677.688 2037.77 680.479C2039.43 683.261 2040.27 686.344 2040.27 689.729C2040.27 694.094 2039.03 697.75 2036.56 700.709C2034.1 703.657 2030.23 705.584 2024.96 706.5L2038.12 720.709C2038.92 721.516 2039.28 722.323 2039.18 723.125C2039.1 723.933 2038.77 724.604 2038.21 725.146C2037.63 725.688 2036.94 725.959 2036.14 725.959C2035.28 725.959 2034.5 725.584 2033.81 724.834L2017.21 706.854H2000.52ZM2000.52 701.438H2017.89C2023.46 701.438 2027.52 700.334 2030.06 698.125C2032.61 695.917 2033.89 693.229 2033.89 690.063C2033.84 686.344 2032.4 683.229 2029.58 680.729C2026.77 678.229 2022.88 676.979 2017.89 676.979H2000.52V701.438Z" fill="#242424"/>
<path d="M2104.21 673.979C2104.21 673.063 2104.55 672.375 2105.23 671.917C2105.93 671.459 2106.7 671.229 2107.57 671.229C2108.37 671.229 2109.1 671.448 2109.75 671.875C2110.42 672.308 2110.75 673.011 2110.75 673.979V722.25C2110.75 723.516 2110.34 724.453 2109.5 725.063C2108.67 725.662 2107.76 725.959 2106.8 725.959C2106.05 725.959 2105.32 725.787 2104.63 725.438C2103.95 725.094 2103.41 724.604 2103 723.979L2070.82 681.292L2071.5 693.167V722.771C2071.5 723.87 2071.16 724.677 2070.46 725.188C2069.78 725.703 2069.04 725.959 2068.23 725.959C2067.43 725.959 2066.68 725.703 2065.98 725.188C2065.3 724.677 2064.96 723.87 2064.96 722.771V675C2064.96 673.75 2065.3 672.813 2065.98 672.188C2066.68 671.552 2067.49 671.229 2068.42 671.229C2069.91 671.229 2071.08 671.891 2071.94 673.209L2105.07 716.75L2104.21 703.75V673.979Z" fill="#242424"/>
<path d="M2138.9 674.417C2138.9 673.323 2139.23 672.516 2139.92 672C2140.61 671.49 2141.33 671.229 2142.08 671.229C2142.89 671.229 2143.63 671.49 2144.31 672C2145 672.516 2145.35 673.323 2145.35 674.417V722.938C2145.35 723.927 2145 724.677 2144.31 725.188C2143.63 725.703 2142.89 725.959 2142.08 725.959C2141.28 725.959 2140.54 725.719 2139.87 725.229C2139.22 724.745 2138.9 723.979 2138.9 722.938V674.417Z" fill="#242424"/>
<path d="M2211.88 673.979C2211.88 673.063 2212.21 672.375 2212.9 671.917C2213.59 671.459 2214.37 671.229 2215.23 671.229C2216.03 671.229 2216.76 671.448 2217.42 671.875C2218.08 672.308 2218.42 673.011 2218.42 673.979V722.25C2218.42 723.516 2218 724.453 2217.17 725.063C2216.33 725.662 2215.43 725.959 2214.46 725.959C2213.71 725.959 2212.99 725.787 2212.29 725.438C2211.61 725.094 2211.07 724.604 2210.67 723.979L2178.48 681.292L2179.17 693.167V722.771C2179.17 723.87 2178.82 724.677 2178.13 725.188C2177.44 725.703 2176.7 725.959 2175.9 725.959C2175.09 725.959 2174.34 725.703 2173.65 725.188C2172.96 724.677 2172.63 723.87 2172.63 722.771V675C2172.63 673.75 2172.96 672.813 2173.65 672.188C2174.34 671.552 2175.15 671.229 2176.08 671.229C2177.57 671.229 2178.74 671.891 2179.61 673.209L2212.73 716.75L2211.88 703.75V673.979Z" fill="#242424"/>
<path d="M2293.73 713.646C2293.73 714.104 2293.66 714.563 2293.54 715.021C2293.42 715.479 2293.17 715.974 2292.77 716.5C2290.25 719.823 2287.02 722.37 2283.06 724.146C2279.1 725.927 2275.02 726.813 2270.83 726.813C2267.16 726.813 2263.66 726.094 2260.33 724.667C2257 723.24 2254.06 721.219 2251.54 718.604C2249.02 715.995 2247.06 712.953 2245.64 709.479C2244.24 706.011 2243.57 702.24 2243.64 698.167C2243.64 693.516 2244.53 689.438 2246.31 685.938C2248.09 682.438 2250.38 679.542 2253.18 677.25C2256 674.959 2258.99 673.24 2262.14 672.084C2265.29 670.933 2268.27 670.354 2271.08 670.354C2274.81 670.354 2278.53 671.016 2282.23 672.334C2285.93 673.657 2288.96 675.698 2291.31 678.459C2291.94 679.198 2292.21 679.969 2292.08 680.771C2291.97 681.578 2291.62 682.261 2291.04 682.813C2290.47 683.354 2289.79 683.625 2289.02 683.625C2288.25 683.625 2287.52 683.25 2286.83 682.5C2285 680.323 2282.76 678.703 2280.12 677.646C2277.48 676.578 2274.81 676.042 2272.12 676.042C2269.83 676.042 2267.39 676.516 2264.81 677.459C2262.23 678.407 2259.8 679.828 2257.54 681.729C2255.27 683.62 2253.42 685.959 2251.98 688.75C2250.54 691.532 2249.83 694.75 2249.83 698.417C2249.88 701.459 2250.48 704.328 2251.62 707.021C2252.77 709.719 2254.32 712.099 2256.27 714.167C2258.23 716.24 2260.47 717.875 2263 719.084C2265.52 720.282 2268.16 720.907 2270.91 720.959C2274.12 721.032 2277.25 720.391 2280.29 719.042C2283.33 717.683 2285.8 715.745 2287.71 713.229V701.771H2272.21C2271.17 701.771 2270.43 701.49 2269.98 700.917C2269.52 700.349 2269.3 699.688 2269.33 698.938C2269.36 698.188 2269.61 697.532 2270.1 696.959C2270.59 696.391 2271.29 696.104 2272.21 696.104H2290.46C2291.72 696.104 2292.58 696.391 2293.04 696.959C2293.5 697.532 2293.73 698.302 2293.73 699.271V713.646Z" fill="#242424"/>
<path d="M2384.26 671.229C2386.27 671.229 2388.45 671.448 2390.8 671.875C2393.15 672.308 2395.37 673.052 2397.47 674.104C2399.56 675.162 2401.29 676.667 2402.64 678.625C2403.98 680.573 2404.66 683.063 2404.66 686.104C2404.66 688.344 2404.1 690.386 2403.01 692.229C2401.93 694.063 2400.27 695.438 2398.03 696.354C2401.18 697.328 2403.73 698.917 2405.68 701.125C2407.64 703.334 2408.61 706.188 2408.61 709.688C2408.61 712.912 2407.97 715.573 2406.68 717.667C2405.39 719.75 2403.66 721.396 2401.51 722.604C2399.35 723.813 2396.95 724.677 2394.28 725.188C2391.61 725.703 2388.93 725.959 2386.24 725.959H2363.86C2363 725.959 2362.25 725.662 2361.61 725.063C2360.99 724.453 2360.68 723.719 2360.68 722.854V674.313C2360.68 673.453 2360.99 672.724 2361.61 672.125C2362.25 671.532 2363 671.229 2363.86 671.229H2384.26ZM2384.26 676.813H2366.97V694.375H2384.51C2386.98 694.375 2389.27 694.12 2391.36 693.604C2393.46 693.094 2395.15 692.229 2396.43 691.021C2397.72 689.813 2398.36 688.177 2398.36 686.104C2398.36 684.271 2397.89 682.761 2396.95 681.563C2396 680.354 2394.79 679.412 2393.32 678.729C2391.86 678.037 2390.31 677.542 2388.68 677.25C2387.05 676.959 2385.58 676.813 2384.26 676.813ZM2388.82 699.959H2366.97V720.354H2386.24C2388.77 720.354 2391.24 720.073 2393.68 719.5C2396.12 718.933 2398.14 717.875 2399.74 716.334C2401.35 714.782 2402.16 712.563 2402.16 709.688C2402.16 706.313 2400.86 703.849 2398.28 702.292C2395.7 700.74 2392.54 699.959 2388.82 699.959Z" fill="#242424"/>
<path d="M2478.5 673.542C2478.5 672.459 2478.83 671.662 2479.52 671.146C2480.21 670.62 2480.96 670.354 2481.77 670.354C2482.57 670.354 2483.3 670.62 2483.95 671.146C2484.62 671.662 2484.95 672.433 2484.95 673.459V701.938C2484.95 706.078 2484.23 709.698 2482.79 712.792C2481.35 715.891 2479.42 718.49 2476.97 720.584C2474.54 722.683 2471.82 724.245 2468.81 725.271C2465.81 726.297 2462.72 726.813 2459.56 726.813C2456.4 726.813 2453.32 726.297 2450.31 725.271C2447.29 724.245 2444.56 722.683 2442.12 720.584C2439.69 718.49 2437.76 715.891 2436.33 712.792C2434.9 709.698 2434.18 706.078 2434.18 701.938V673.209C2434.18 672.224 2434.52 671.5 2435.2 671.042C2435.9 670.584 2436.62 670.354 2437.37 670.354C2438.16 670.354 2438.9 670.604 2439.6 671.104C2440.29 671.594 2440.64 672.323 2440.64 673.292V701.938C2440.64 706.078 2441.56 709.521 2443.39 712.271C2445.22 715.021 2447.58 717.104 2450.47 718.521C2453.38 719.927 2456.4 720.625 2459.56 720.625C2462.72 720.625 2465.75 719.927 2468.64 718.521C2471.54 717.104 2473.91 715.021 2475.75 712.271C2477.58 709.521 2478.5 706.078 2478.5 701.938V673.542Z" fill="#242424"/>
<path d="M2515.07 725.959C2513.99 725.959 2513.06 725.594 2512.28 724.854C2511.5 724.104 2511.11 723.24 2511.11 722.25V674.834C2511.11 673.865 2511.5 673.021 2512.28 672.313C2513.06 671.594 2513.99 671.229 2515.07 671.229H2533.84C2538.14 671.229 2541.89 672.011 2545.07 673.563C2548.25 675.104 2550.92 677.183 2553.07 679.792C2555.22 682.407 2556.83 685.328 2557.88 688.563C2558.95 691.802 2559.49 695.141 2559.49 698.584C2559.49 702.032 2558.95 705.375 2557.88 708.625C2556.83 711.865 2555.22 714.787 2553.07 717.396C2550.92 720.011 2548.25 722.094 2545.07 723.646C2541.89 725.188 2538.14 725.959 2533.84 725.959H2515.07ZM2517.32 720.354H2533.84C2537.05 720.354 2539.87 719.745 2542.3 718.521C2544.74 717.287 2546.76 715.62 2548.36 713.521C2549.97 711.427 2551.18 709.084 2551.99 706.5C2552.79 703.917 2553.2 701.282 2553.2 698.584C2553.2 695.891 2552.79 693.24 2551.99 690.625C2551.18 688.016 2549.97 685.667 2548.36 683.584C2546.76 681.49 2544.74 679.823 2542.3 678.584C2539.87 677.349 2537.05 676.729 2533.84 676.729H2517.32V720.354Z" fill="#242424"/>
<path d="M2586.25 725.959C2585.16 725.959 2584.23 725.594 2583.45 724.854C2582.67 724.104 2582.29 723.24 2582.29 722.25V674.834C2582.29 673.865 2582.67 673.021 2583.45 672.313C2584.23 671.594 2585.16 671.229 2586.25 671.229H2605.02C2609.32 671.229 2613.06 672.011 2616.25 673.563C2619.42 675.104 2622.09 677.183 2624.25 679.792C2626.4 682.407 2628 685.328 2629.06 688.563C2630.13 691.802 2630.66 695.141 2630.66 698.584C2630.66 702.032 2630.13 705.375 2629.06 708.625C2628 711.865 2626.4 714.787 2624.25 717.396C2622.09 720.011 2619.42 722.094 2616.25 723.646C2613.06 725.188 2609.32 725.959 2605.02 725.959H2586.25ZM2588.5 720.354H2605.02C2608.22 720.354 2611.04 719.745 2613.47 718.521C2615.92 717.287 2617.94 715.62 2619.54 713.521C2621.15 711.427 2622.35 709.084 2623.16 706.5C2623.96 703.917 2624.37 701.282 2624.37 698.584C2624.37 695.891 2623.96 693.24 2623.16 690.625C2622.35 688.016 2621.15 685.667 2619.54 683.584C2617.94 681.49 2615.92 679.823 2613.47 678.584C2611.04 677.349 2608.22 676.729 2605.02 676.729H2588.5V720.354Z" fill="#242424"/>
<path d="M2672.65 703.834L2651.48 675.875C2650.56 674.667 2650.51 673.594 2651.31 672.646C2652.12 671.703 2653.06 671.229 2654.15 671.229C2655.36 671.229 2656.27 671.719 2656.9 672.688L2675.75 698.417L2694.77 672.688C2695.4 671.719 2696.28 671.229 2697.44 671.229C2698.47 671.229 2699.34 671.677 2700.06 672.563C2700.78 673.453 2700.74 674.532 2699.94 675.792L2679.02 703.834V722.771C2679.02 723.87 2678.67 724.677 2677.98 725.188C2677.3 725.703 2676.59 725.959 2675.84 725.959C2674.97 725.959 2674.22 725.703 2673.59 725.188C2672.96 724.677 2672.65 723.87 2672.65 722.771V703.834Z" fill="#242424"/>
</svg>
