<svg width="2500" height="2500" viewBox="0 0 2500 2500" fill="none" xmlns="http://www.w3.org/2000/svg">
<path d="M1437.96 1855.75C1474.11 1855.75 1500.89 1868.13 1518.29 1892.9C1535.69 1917.67 1544.4 1944.79 1544.4 1974.25C1544.4 2005.04 1535.69 2032.15 1518.29 2055.58C1500.89 2079.01 1474.78 2090.73 1439.98 2090.73H829.438C712.948 2090.73 610.854 2065.63 523.146 2015.42C435.448 1965.21 367.167 1894.92 318.292 1804.54C269.427 1714.17 245 1608.06 245 1486.23C245 1365.72 269.427 1259.94 318.292 1168.9C367.167 1077.86 435.448 1007.23 523.146 957.022C610.854 906.814 712.948 881.71 829.438 881.71H1443.98C1477.45 881.71 1502.55 893.757 1519.29 917.856C1536.03 941.95 1544.4 968.731 1544.4 998.189C1544.4 1028.98 1536.03 1056.76 1519.29 1081.52C1502.55 1106.3 1476.78 1118.69 1441.98 1118.69H829.438C718.297 1118.69 628.25 1152.16 559.292 1219.11C490.344 1286.05 455.875 1374.42 455.875 1484.21C455.875 1595.33 490.344 1685.03 559.292 1753.31C628.25 1821.61 718.297 1855.75 829.438 1855.75H1437.96Z" fill="#FF751F"/>
<path d="M1061.54 643.979C1025.39 643.979 998.613 631.599 981.207 606.833C963.806 582.057 955.103 554.938 955.103 525.479C955.103 494.688 963.806 467.578 981.207 444.146C998.613 420.719 1024.72 409 1059.52 409H1670.06C1786.55 409 1888.64 434.104 1976.35 484.313C2064.05 534.521 2132.33 604.813 2181.21 695.188C2230.07 785.563 2254.5 891.667 2254.5 1013.5C2254.5 1134.02 2230.07 1239.79 2181.21 1330.83C2132.33 1421.88 2064.05 1492.5 1976.35 1542.71C1888.64 1592.92 1786.55 1618.02 1670.06 1618.02H1055.52C1022.05 1618.02 996.946 1605.97 980.207 1581.88C963.472 1557.78 955.103 1531 955.103 1501.54C955.103 1470.75 963.472 1442.97 980.207 1418.21C996.946 1393.43 1022.72 1381.04 1057.52 1381.04H1670.06C1781.2 1381.04 1871.25 1347.57 1940.21 1280.63C2009.15 1213.68 2043.62 1125.31 2043.62 1015.52C2043.62 904.396 2009.15 814.698 1940.21 746.417C1871.25 678.125 1781.2 643.979 1670.06 643.979H1061.54Z" fill="#FFD21F"/>
</svg>
